<?xml version="1.0" standalone="no"?><!DOCTYPE svg PUBLIC "-//W3C//DTD SVG 1.1//EN" "http://www.w3.org/Graphics/SVG/1.1/DTD/svg11.dtd"><svg t="1731230328527" class="icon" viewBox="0 0 1024 1024" version="1.1" xmlns="http://www.w3.org/2000/svg" p-id="2219" xmlns:xlink="http://www.w3.org/1999/xlink" width="200" height="200"><path d="M494.250667 56.888889C284.103111 56.888889 113.777778 226.133333 113.777778 434.631111c0 96.028444 36.238222 183.182222 95.459555 249.799111a41.244444 41.244444 0 0 0 6.257778 8.704l247.068445 257.137778c1.251556 1.536 2.503111 3.299556 3.925333 4.778667 3.754667 3.697778 7.964444 6.371556 12.629333 8.305777 14.222222 6.599111 31.459556 4.437333 43.008-7.111111a36.977778 36.977778 0 0 0 7.452445-10.808889l242.517333-252.302222a33.223111 33.223111 0 0 0 5.688889-7.395555 374.101333 374.101333 0 0 0 96.540444-250.88C874.666667 226.133333 704.284444 56.888889 494.250667 56.888889z" fill="#EA5504" p-id="2220"></path><path d="M494.023111 588.231111c-94.549333 0-171.349333-76.231111-171.349333-170.097778 0-93.866667 76.8-170.097778 171.349333-170.097777 94.606222 0 171.406222 76.231111 171.406222 170.097777 0 93.866667-76.8 170.097778-171.406222 170.097778z" fill="#FFFFFF" p-id="2221"></path></svg>